<svg xmlns="http://www.w3.org/2000/svg" viewBox="0 0 444.82 71.01"><defs><style>.a,.d{fill:#03a9f4;}.b,.c{fill:#ff9800;}.c{stroke:#ff9800;}.c,.d{stroke-miterlimit:10;stroke-width:4px;}.d{stroke:#03a9f4;}</style></defs><title>logologo_5</title><path class="a" d="M188,46.78a2.67,2.67,0,0,1,2.53,3.59,2.33,2.33,0,0,1-.58.92,2.7,2.7,0,0,1-2,.8,2.58,2.58,0,0,0-2.46,1.59,2.67,2.67,0,0,0,2.41,3.72H188a5.31,5.31,0,1,0,0-10.62Z"/><path class="a" d="M188.78,49.52a.81.81,0,0,1-.82.82.82.82,0,1,1,0-1.64h0A.81.81,0,0,1,188.78,49.52Z"/><path class="b" d="M188,57.4a2.67,2.67,0,0,1-2.53-3.59,2.13,2.13,0,0,1,.58-.92,2.7,2.7,0,0,1,2-.8,2.56,2.56,0,0,0,2.46-1.59,2.67,2.67,0,0,0-2.41-3.72H188a5.31,5.31,0,0,0,0,10.62Z"/><path class="c" d="M41.83,2V55H37V48.44A21,21,0,0,1,30,54.1,18.75,18.75,0,0,1,21.62,56,18.65,18.65,0,0,1,7.75,50.11,19.74,19.74,0,0,1,2,35.79,19.39,19.39,0,0,1,7.8,21.65a18.94,18.94,0,0,1,14-5.87,18,18,0,0,1,8.52,2,19.28,19.28,0,0,1,6.7,6V2ZM22.16,20.53A14.84,14.84,0,0,0,9.05,28.22a15.48,15.48,0,0,0,0,15.45,15.07,15.07,0,0,0,5.57,5.74,14.54,14.54,0,0,0,7.5,2.05,15.32,15.32,0,0,0,7.65-2,14.32,14.32,0,0,0,5.57-5.51,15.75,15.75,0,0,0,1.95-7.84A15.19,15.19,0,0,0,32.92,25,14.44,14.44,0,0,0,22.16,20.53Z"/><path class="c" d="M83,42.32l4.15,2.18A22.38,22.38,0,0,1,82.45,51a18.86,18.86,0,0,1-6,3.75A21.16,21.16,0,0,1,68.87,56q-9.36,0-14.64-6.13A20.71,20.71,0,0,1,49,36a20.46,20.46,0,0,1,4.47-13,18.29,18.29,0,0,1,15.17-7.24A18.85,18.85,0,0,1,84.21,23.2a20.65,20.65,0,0,1,4.22,13.08H54A15.56,15.56,0,0,0,58.27,47.2a13.6,13.6,0,0,0,10.18,4.26,16.28,16.28,0,0,0,5.68-1,15,15,0,0,0,4.7-2.7A22.89,22.89,0,0,0,83,42.32ZM83,32a16.32,16.32,0,0,0-2.87-6.29,13.76,13.76,0,0,0-5-3.8,15.3,15.3,0,0,0-6.51-1.44A14,14,0,0,0,59,24.11,16.42,16.42,0,0,0,54.51,32Z"/><path class="c" d="M127.65,42.32l4.15,2.18A22.54,22.54,0,0,1,127.09,51a18.91,18.91,0,0,1-6,3.75A21.12,21.12,0,0,1,113.5,56q-9.36,0-14.64-6.13A20.75,20.75,0,0,1,93.59,36a20.46,20.46,0,0,1,4.47-13,18.27,18.27,0,0,1,15.16-7.24,18.85,18.85,0,0,1,15.62,7.42,20.72,20.72,0,0,1,4.23,13.08H98.65a15.53,15.53,0,0,0,4.26,10.92,13.57,13.57,0,0,0,10.17,4.26,16.33,16.33,0,0,0,5.69-1,15,15,0,0,0,4.69-2.7A22.89,22.89,0,0,0,127.65,42.32Zm0-10.3a16.18,16.18,0,0,0-2.87-6.29,13.59,13.59,0,0,0-5-3.8,15.23,15.23,0,0,0-6.51-1.44,14.05,14.05,0,0,0-9.68,3.62A16.42,16.42,0,0,0,99.14,32Z"/><path class="c" d="M140.15,16.77h4.92v7a19.76,19.76,0,0,1,6.71-6,17.8,17.8,0,0,1,8.47-2,18.89,18.89,0,0,1,13.94,5.87A19.42,19.42,0,0,1,180,35.79a19.73,19.73,0,0,1-5.74,14.32,19.33,19.33,0,0,1-22.25,4,21.06,21.06,0,0,1-6.92-5.66V69h-4.92Zm19.69,3.76A14.42,14.42,0,0,0,149.09,25a15.23,15.23,0,0,0-4.37,11.09,15.75,15.75,0,0,0,1.95,7.84,14.28,14.28,0,0,0,5.58,5.51,15.39,15.39,0,0,0,7.66,2,14.42,14.42,0,0,0,7.45-2.05,15,15,0,0,0,5.56-5.74,15.51,15.51,0,0,0,0-15.45,14.81,14.81,0,0,0-13.1-7.69Z"/><path class="d" d="M204.07,16.77H209V55h-4.92Z"/><path class="d" d="M217.06,16.77H222v6.85a20.52,20.52,0,0,1,6.53-5.89,16.13,16.13,0,0,1,7.81-2A13.57,13.57,0,0,1,243.94,18a12.9,12.9,0,0,1,4.9,5.87q1.59,3.69,1.59,11.5V55H245.5V36.77A45.45,45.45,0,0,0,245,28a9.73,9.73,0,0,0-3.28-5.72,10,10,0,0,0-6.33-1.91,12.12,12.12,0,0,0-8,2.95,13.83,13.83,0,0,0-4.66,7.31A50.88,50.88,0,0,0,222,41V55h-4.93Z"/><path class="d" d="M278,21l-3.16,3.27c-2.63-2.56-5.21-3.83-7.72-3.83A5.81,5.81,0,0,0,263.05,22a4.87,4.87,0,0,0-1.71,3.69,5.46,5.46,0,0,0,1.41,3.55c.94,1.15,2.92,2.5,5.92,4q5.5,2.85,7.47,5.49a10,10,0,0,1,1.94,6,10.78,10.78,0,0,1-3.31,8A11.31,11.31,0,0,1,266.5,56a14.51,14.51,0,0,1-6.33-1.44,13.88,13.88,0,0,1-5-4l3.1-3.52q3.76,4.26,8,4.25a7.2,7.2,0,0,0,5-1.89A5.87,5.87,0,0,0,273.4,45,5.68,5.68,0,0,0,272,41.2c-.92-1.08-3-2.44-6.2-4.08q-5.18-2.67-7.05-5.27a10,10,0,0,1-1.86-5.94,9.7,9.7,0,0,1,3-7.25,10.37,10.37,0,0,1,7.52-2.88Q272.69,15.78,278,21Z"/><path class="d" d="M288.89,2.56h4.92V16.77h7.81V21h-7.81V55h-4.92V21h-6.71V16.77h6.71Z"/><path class="d" d="M306.1,16.77H311V55H306.1Z"/><path class="d" d="M323.38,2.56h4.93V16.77h7.8V21h-7.8V55h-4.93V21h-6.71V16.77h6.71Z"/><path class="d" d="M340.7,16.77h4.92V34.63a38.1,38.1,0,0,0,.71,9,10,10,0,0,0,4,5.55,12.23,12.23,0,0,0,7.09,2,11.93,11.93,0,0,0,7-2,10.1,10.1,0,0,0,4-5.22c.5-1.47.74-4.6.74-9.38V16.77h5V35.54q0,7.91-1.85,11.92a14.09,14.09,0,0,1-5.55,6.27,20.25,20.25,0,0,1-18.63,0,13.94,13.94,0,0,1-5.59-6.33q-1.85-4-1.85-12.21Z"/><path class="d" d="M387.23,2.56h4.92V16.77H400V21h-7.81V55h-4.92V21h-6.71V16.77h6.71Z"/><path class="d" d="M437.38,42.32l4.15,2.18A22.54,22.54,0,0,1,436.82,51a18.8,18.8,0,0,1-6,3.75A21.1,21.1,0,0,1,423.24,56q-9.36,0-14.64-6.13A20.71,20.71,0,0,1,403.32,36a20.46,20.46,0,0,1,4.47-13A18.27,18.27,0,0,1,423,15.78a18.88,18.88,0,0,1,15.63,7.42,20.77,20.77,0,0,1,4.22,13.08H408.38a15.53,15.53,0,0,0,4.26,10.92,13.58,13.58,0,0,0,10.17,4.26,16.33,16.33,0,0,0,5.69-1,15.16,15.16,0,0,0,4.7-2.7A22.89,22.89,0,0,0,437.38,42.32Zm0-10.3a16.32,16.32,0,0,0-2.86-6.29,13.76,13.76,0,0,0-5-3.8A15.31,15.31,0,0,0,423,20.49a14.05,14.05,0,0,0-9.68,3.62A16.42,16.42,0,0,0,408.87,32Z"/></svg>