<svg xmlns="http://www.w3.org/2000/svg" xmlns:xlink="http://www.w3.org/1999/xlink" viewBox="0 0 1024 1024"><defs><style>.a{fill:none;}.b{fill:#f4be4b;}.b,.c{fill-rule:evenodd;}.c{fill:#58595b;}.d{fill:#f3be4b;}.e{clip-path:url(#a);}</style><clipPath id="a"><rect class="a" width="1024" height="1024"/></clipPath></defs><title>logoArtboard 1</title><polygon class="b" points="496.96 522.99 562.61 623.75 629.38 623.75 530.23 472.31 496.96 522.99"/><polygon class="b" points="612.39 228.61 496.92 405.18 530.1 455.74 677.78 228.61 612.39 228.61"/><polygon class="c" points="482.42 430.36 503.16 462.05 482.42 493.72 461.67 462.05 482.42 430.36"/><path class="c" d="M709,228.61h29.24V707.34H606.68L571,652.74H683.69V283.2H673.55Zm-232,478.73-35.65-54.6H327.61V283.2H545.37l35.7-54.59H273V707.34Z"/><polygon class="c" points="448.4 314.03 514.73 314.03 416.2 463.93 575.37 707.34 508.35 707.34 349.58 464.13 448.4 314.03"/><polygon class="d" points="289.73 729.74 289.73 749.91 298.99 749.91 321 729.41 346.93 729.41 314.75 757 349.59 785.35 323.92 785.35 298.99 764.09 289.73 764.09 289.73 785.35 272.81 785.35 272.81 729.74 289.73 729.74"/><rect class="d" x="371.87" y="729.74" width="17.76" height="55.6"/><g class="e"><path class="d" d="M417.48,729.74h40.93c19.18,0,19.18,0,22.76,2.17,4.25,2.58,5.5,6.25,5.5,15.92,0,8.25-.83,11.42-3.83,13.67-1.58,1.25-3.17,1.84-6.5,2.34,8.58,1,10.08,3.5,9.75,16.34v5.17H469.42v-2.92c0-6.25-.34-8.25-1.67-9.67-1.17-1.34-2.42-1.5-9.42-1.5H434.4v14.09H417.48Zm40.77,27.6c8.5-.17,8.5-.17,9.67-1,1.33-.84,1.83-2.51,1.83-6,0-3.75-.67-5.33-2.42-6.09-1.16-.49-1.41-.49-9.08-.58H434.4v13.68Z"/><path class="d" d="M568.06,775.93H531.29l-4.75,9.42H507.2l29.43-55.61H563l29.1,55.61H572.81Zm-16.68-33.27h-3.33l-10.76,21.1h24.85Z"/><rect class="d" x="614.6" y="729.74" width="17.76" height="55.6"/><polygon class="d" points="689.88 729.74 718.98 771.17 720.73 771.17 720.32 729.74 737.57 729.74 737.57 785.35 708.14 785.35 678.88 743.83 677.05 743.83 677.46 785.35 660.21 785.35 660.21 729.74 689.88 729.74"/></g></svg>